REM DIRINDEX 1\2,1\3,1\4,1\5,1\6
REM DIRNAME folder01,folder02,folder03,folder04,folder05,folder06
TITLE ""
FILE "Disc4Track43.mp3" MP3
  TRACK 01 AUDIO
    TITLE "3:cjc030_07244"
    INDEX 01 00:00:00
  TRACK 02 AUDIO
    TITLE "0:"
    INDEX 01 00:01:21
  TRACK 03 AUDIO
    TITLE "4:cjc030_07245"
    INDEX 01 00:01:30
  TRACK 04 AUDIO
    TITLE "0:"
    INDEX 01 00:02:24
  TRACK 05 AUDIO
    TITLE "5:cjc030_07246"
    INDEX 01 00:02:34
  TRACK 06 AUDIO
    TITLE "0:"
    INDEX 01 00:03:57
  TRACK 07 AUDIO
    TITLE "6:cjc030_07247"
    INDEX 01 00:03:68
  TRACK 08 AUDIO
    TITLE "0:"
    INDEX 01 00:07:23
  TRACK 09 AUDIO
    TITLE "3:cjc030_07248"
    INDEX 01 00:07:70
  TRACK 10 AUDIO
    TITLE "0:"
    INDEX 01 00:09:12
  TRACK 11 AUDIO
    TITLE "4:cjc030_07249"
    INDEX 01 00:09:20
  TRACK 12 AUDIO
    TITLE "0:"
    INDEX 01 00:11:58
  TRACK 13 AUDIO
    TITLE "5:cjc030_07250"
    INDEX 01 00:11:66
  TRACK 14 AUDIO
    TITLE "0:"
    INDEX 01 00:13:08
  TRACK 15 AUDIO
    TITLE "6:cjc030_07251"
    INDEX 01 00:13:20
  TRACK 16 AUDIO
    TITLE "0:"
    INDEX 01 00:16:49
  TRACK 17 AUDIO
    TITLE "3:cjc030_07252"
    INDEX 01 00:17:23
  TRACK 18 AUDIO
    TITLE "0:"
    INDEX 01 00:18:27
  TRACK 19 AUDIO
    TITLE "4:cjc030_07253"
    INDEX 01 00:18:33
  TRACK 20 AUDIO
    TITLE "0:"
    INDEX 01 00:20:69
  TRACK 21 AUDIO
    TITLE "5:cjc030_07254"
    INDEX 01 00:21:04
  TRACK 22 AUDIO
    TITLE "0:"
    INDEX 01 00:22:07
  TRACK 23 AUDIO
    TITLE "6:cjc030_07255"
    INDEX 01 00:22:19
  TRACK 24 AUDIO
    TITLE "0:"
    INDEX 01 00:26:09
  TRACK 25 AUDIO
    TITLE "3:cjc030_07256"
    INDEX 01 00:26:58
  TRACK 26 AUDIO
    TITLE "0:"
    INDEX 01 00:28:00
  TRACK 27 AUDIO
    TITLE "4:cjc030_07257"
    INDEX 01 00:28:08
  TRACK 28 AUDIO
    TITLE "0:"
    INDEX 01 00:30:03
  TRACK 29 AUDIO
    TITLE "5:cjc030_07258"
    INDEX 01 00:30:12
  TRACK 30 AUDIO
    TITLE "0:"
    INDEX 01 00:31:29
  TRACK 31 AUDIO
    TITLE "3:cjc030_07259"
    INDEX 01 00:32:09
  TRACK 32 AUDIO
    TITLE "0:"
    INDEX 01 00:33:01
  TRACK 33 AUDIO
    TITLE "4:cjc030_07260"
    INDEX 01 00:33:09
  TRACK 34 AUDIO
    TITLE "0:"
    INDEX 01 00:34:36
  TRACK 35 AUDIO
    TITLE "5:cjc030_07261"
    INDEX 01 00:34:47
  TRACK 36 AUDIO
    TITLE "0:"
    INDEX 01 00:35:37
  TRACK 37 AUDIO
    TITLE "6:cjc030_07262"
    INDEX 01 00:35:49
  TRACK 38 AUDIO
    TITLE "0:"
    INDEX 01 00:37:05
  TRACK 39 AUDIO
    TITLE "3:cjc030_07263"
    INDEX 01 00:37:54
  TRACK 40 AUDIO
    TITLE "0:"
    INDEX 01 00:38:51
  TRACK 41 AUDIO
    TITLE "4:cjc030_07264"
    INDEX 01 00:38:59
  TRACK 42 AUDIO
    TITLE "0:"
    INDEX 01 00:39:64
  TRACK 43 AUDIO
    TITLE "5:cjc030_07265"
    INDEX 01 00:39:72
  TRACK 44 AUDIO
    TITLE "0:"
    INDEX 01 00:40:68
  TRACK 45 AUDIO
    TITLE "3:cjc030_07266"
    INDEX 01 00:41:47
  TRACK 46 AUDIO
    TITLE "0:"
    INDEX 01 00:42:51
  TRACK 47 AUDIO
    TITLE "4:cjc030_07267"
    INDEX 01 00:42:57
  TRACK 48 AUDIO
    TITLE "0:"
    INDEX 01 00:43:33
  TRACK 49 AUDIO
    TITLE "5:cjc030_07268"
    INDEX 01 00:43:42
  TRACK 50 AUDIO
    TITLE "0:"
    INDEX 01 00:44:42
  TRACK 51 AUDIO
    TITLE "6:cjc030_07269"
    INDEX 01 00:44:60
  TRACK 52 AUDIO
    TITLE "0:"
    INDEX 01 00:46:33
  TRACK 53 AUDIO
    TITLE "3:cjc030_07270"
    INDEX 01 00:47:05
  TRACK 54 AUDIO
    TITLE "0:"
    INDEX 01 00:48:16
  TRACK 55 AUDIO
    TITLE "4:cjc030_07271"
    INDEX 01 00:48:24
  TRACK 56 AUDIO
    TITLE "0:"
    INDEX 01 00:51:11
  TRACK 57 AUDIO
    TITLE "5:cjc030_07272"
    INDEX 01 00:51:20
  TRACK 58 AUDIO
    TITLE "0:"
    INDEX 01 00:52:28
  TRACK 59 AUDIO
    TITLE "6:cjc030_07273"
    INDEX 01 00:52:43
  TRACK 60 AUDIO
    TITLE "0:"
    INDEX 01 00:55:69
